HIERARCHY
ROOT RootJoint
{
    OFFSET   0.000000   0.000000   0.000000
    CHANNELS 6 Xposition Yposition Zposition Xrotation Yrotation Zrotation
    JOINT pelvis_lowerback
    {
        OFFSET   0.000000   0.093605   0.000000
        CHANNELS 3 Xrotation Yrotation Zrotation
        JOINT lowerback_torso
        {
            OFFSET   0.000000   0.100000   0.000000
            CHANNELS 3 Xrotation Yrotation Zrotation
            JOINT torso_head
            {
                OFFSET   0.000000   0.282350   0.000000
                CHANNELS 3 Xrotation Yrotation Zrotation
                End Site
                {
                    OFFSET   0.000000   0.192650   0.000000
                }
            }
            JOINT rTorso_Clavicle
            {
                OFFSET  -0.001000   0.157500   0.000000
                CHANNELS 3 Xrotation Yrotation Zrotation
                JOINT rShoulder
                {
                    OFFSET  -0.117647   0.000000   0.000000
                    CHANNELS 3 Xrotation Yrotation Zrotation
                    JOINT rElbow
                    {
                        OFFSET  -0.245000   0.000000   0.000000
                        CHANNELS 3 Xrotation Yrotation Zrotation
                        JOINT rWrist
                        {
                            OFFSET  -0.240000   0.000000   0.000000
                            CHANNELS 3 Xrotation Yrotation Zrotation
                            End Site
                            {
                                OFFSET  -0.116353  -0.002500   0.000000
                            }
                        }
                    }
                }
            }
            JOINT lTorso_Clavicle
            {
                OFFSET   0.001000   0.157500   0.000000
                CHANNELS 3 Xrotation Yrotation Zrotation
                JOINT lShoulder
                {
                    OFFSET   0.117647   0.000000   0.000000
                    CHANNELS 3 Xrotation Yrotation Zrotation
                    JOINT lElbow
                    {
                        OFFSET   0.245000   0.000000   0.000000
                        CHANNELS 3 Xrotation Yrotation Zrotation
                        JOINT lWrist
                        {
                            OFFSET   0.240000   0.000000   0.000000
                            CHANNELS 3 Xrotation Yrotation Zrotation
                            End Site
                            {
                                OFFSET   0.116353  -0.002500   0.000000
                            }
                        }
                    }
                }
            }
        }
    }
    JOINT rHip
    {
        OFFSET  -0.100000  -0.051395   0.000000
        CHANNELS 3 Xrotation Yrotation Zrotation
        JOINT rKnee
        {
            OFFSET   0.000000  -0.410000   0.000000
            CHANNELS 3 Xrotation Yrotation Zrotation
            JOINT rAnkle
            {
                OFFSET   0.000000  -0.390000   0.000000
                CHANNELS 3 Xrotation Yrotation Zrotation
                JOINT rToeJoint
                {
                    OFFSET   0.000000  -0.050000   0.130000
                    CHANNELS 3 Xrotation Yrotation Zrotation
                    End Site
                    {
                        OFFSET  -0.010000   0.002000   0.060000
                    }
                }
            }
        }
    }
    JOINT lHip
    {
        OFFSET   0.100000  -0.051395   0.000000
        CHANNELS 3 Xrotation Yrotation Zrotation
        JOINT lKnee
        {
            OFFSET   0.000000  -0.410000   0.000000
            CHANNELS 3 Xrotation Yrotation Zrotation
            JOINT lAnkle
            {
                OFFSET   0.000000  -0.390000   0.000000
                CHANNELS 3 Xrotation Yrotation Zrotation
                JOINT lToeJoint
                {
                    OFFSET   0.000000  -0.050000   0.130000
                    CHANNELS 3 Xrotation Yrotation Zrotation
                    End Site
                    {
                        OFFSET   0.010000   0.002000   0.060000
                    }
                }
            }
        }
    }
}
MOTION
Frames: 7
Frame Time:   0.008333
 -2.357563   0.833227   4.039570   6.731922   2.996000   1.980498  20.871749   0.587729  -3.096037  -5.895797  -0.735406  -0.751693  -9.662680  -0.658260  -0.221700 -13.200368  17.346609  -4.684544 -21.788674  13.360206  24.801642  -0.321428  56.612252   0.192012   1.969197   0.463283  -7.025361  -9.281060 -15.453534   4.055072 -17.007988 -11.230917 -28.821372  -0.235773 -53.883337  -0.119198  -4.355761  -5.213737   6.578314 -29.773738  -2.465041  -7.624065  62.578249  -0.003910   0.005263 -25.400138  -7.609217   1.820115 -12.965729   0.009776   0.012961 -38.822969   0.977307  -2.200487  72.073805   0.004945   0.006283   0.439836   5.328498  -0.722863 -46.822969  -0.006056   0.003169
 -2.356717   0.846261   4.048470   6.415864   3.055294   1.821424  19.756412   0.784201  -2.676033  -5.416311  -0.803534  -1.051841  -8.561201  -0.950470  -0.235387 -13.165305  17.505850  -6.171158 -22.279377  13.409023  24.518378  -0.285168  57.504861   0.165162   1.937324   0.842649  -7.520013  -8.896814 -14.904043   5.483116 -17.427449 -11.347999 -28.475167  -0.215825 -54.848082  -0.105437  -4.363036  -5.563345   7.176417 -28.167887  -2.798702  -7.530586  60.549553  -0.003775   0.005548 -21.805013  -7.568379   2.559213 -13.943455   0.009819   0.012278 -36.889749   0.808325  -2.010247  69.571269   0.003443   0.002384   2.896442   4.977607  -1.306816 -46.458472  -0.003377   0.003196
 -2.356050   0.860349   4.058060   6.061154   3.004619   1.582961  18.555981   0.987822  -2.232867  -4.906789  -0.840621  -1.308958  -7.475936  -1.234830  -0.237246 -13.041640  17.593809  -7.583769 -22.660989  13.421784  24.282014  -0.252427  58.314605   0.141971   1.904796   1.104993  -7.626286  -8.463529 -14.253978   6.810123 -17.731498 -11.392594 -28.182135  -0.196287 -55.734796  -0.093422  -4.368792  -5.824302   7.505506 -26.602172  -3.167177  -7.306073  58.544607  -0.002014   0.006736 -18.033704  -7.376920   3.304857 -12.782656   0.004576   0.007700 -34.709030   0.620990  -1.695641  66.730806   0.003846  -0.000256   5.515738   4.622933  -1.853821 -46.166852  -0.001647   0.002876
 -2.355566   0.875096   4.068153   5.697680   2.886822   1.306789  17.324947   1.182584  -1.799314  -4.456027  -0.863811  -1.534136  -6.458616  -1.501586  -0.231164 -12.897262  17.620077  -8.904414 -22.987920  13.402064  24.063700  -0.224623  59.059036   0.123226   1.864168   1.280884  -7.597103  -8.043281 -13.566754   8.038637 -17.977764 -11.391920 -27.911471  -0.178830 -56.548580  -0.084080  -4.383848  -5.989646   7.721535 -25.133721  -3.550719  -6.962121  56.684228   0.000848   0.007648 -14.347500  -7.075091   4.022138 -10.887513  -0.003466   0.003379 -32.370418   0.409578  -1.326291  63.607691   0.006167  -0.001019   8.330937   4.268428  -2.357157 -45.933541  -0.000585   0.002354
 -2.355210   0.890201   4.078644   5.345159   2.716066   0.992262  16.067742   1.365051  -1.362847  -4.087404  -0.880404  -1.729673  -5.511014  -1.750501  -0.220487 -12.755650  17.605512 -10.148516 -23.281073  13.363384  23.850086  -0.201452  59.745736   0.108384   1.818449   1.395006  -7.533141  -7.655462 -12.873852   9.183193 -18.190178 -11.366722 -27.653748  -0.163773 -57.300023  -0.077105  -4.405531  -6.089988   7.899914 -23.788762  -3.928897  -6.536684  54.978364   0.003765   0.008530 -10.910324  -6.751241   4.673084  -9.128931  -0.010073   0.000131 -29.925824   0.178569  -0.913244  60.242978   0.009857   0.000296  11.337681   3.920830  -2.814305 -45.746883   0.000027   0.001778
 -2.354951   0.905389   4.089443   5.031755   2.515730   0.636208  14.772897   1.525736  -0.916071  -3.816001  -0.899770  -1.892058  -4.629907  -1.982775  -0.205512 -12.628202  17.562574 -11.329703 -23.551645  13.314605  23.633964  -0.182326  60.381255   0.096766   1.770153   1.465956  -7.473707  -7.307937 -12.195513  10.259396 -18.382592 -11.331787 -27.403321  -0.151082 -57.998329  -0.072098  -4.430261  -6.156242   8.068323 -22.586417  -4.291939  -6.057585  53.411323   0.006121   0.009341  -7.708787  -6.413391   5.262163  -7.525384  -0.014933  -0.002023 -27.436055  -0.064654  -0.460891  56.679244   0.014036   0.003320  14.535413   3.587859  -3.222262 -45.597548   0.000339   0.001250
 -2.354770   0.920415   4.100497   4.759826   2.299340   0.237345  13.447369   1.659096  -0.456355  -3.642812  -0.927597  -2.019318  -3.811760  -2.199510  -0.186436 -12.521149  17.500565 -12.457350 -23.806917  13.261413  23.411288  -0.166528  60.970565   0.087683   1.720874   1.505849  -7.439441  -7.004042 -11.545314  11.280082 -18.564401 -11.296846 -27.155780  -0.140504 -58.650310  -0.068639  -4.455248  -6.210511   8.242395 -21.516027  -4.634953  -5.544825  51.967186   0.007702   0.010065  -4.726951  -6.067474   5.794228  -6.064146  -0.018110  -0.003321 -24.922064  -0.312249   0.031212  52.949329   0.018084   0.007646  17.907890   3.271918  -3.581813 -45.478073   0.000463   0.000811
